<mxfile host="app.diagrams.net" modified="2022-05-16T06:42:37.395Z" agent="5.0 (Windows NT 10.0; Win64; x64) AppleWebKit/537.36 (KHTML, like Gecko) Chrome/100.0.4896.127 Safari/537.36" etag="KbVNDPHcUZxzP-E1yvOq" version="17.4.6" type="github">
  <diagram id="4BoJa4-GdhIkyzQr5frF" name="Page-1">
    <mxGraphModel dx="1106" dy="508" grid="1" gridSize="10" guides="1" tooltips="1" connect="1" arrows="1" fold="1" page="1" pageScale="1" pageWidth="827" pageHeight="1169" math="0" shadow="0">
      <root>
        <mxCell id="0" />
        <mxCell id="1" parent="0" />
        <mxCell id="MFjtI2Jwyj0SVyVRnn8q-8" value="aTrustTunnel" style="rounded=0;whiteSpace=wrap;html=1;" vertex="1" parent="1">
          <mxGeometry x="200" y="360" width="350" height="80" as="geometry" />
        </mxCell>
        <mxCell id="MFjtI2Jwyj0SVyVRnn8q-9" value="async read" style="endArrow=classic;html=1;rounded=0;exitX=0.148;exitY=1.006;exitDx=0;exitDy=0;exitPerimeter=0;entryX=0;entryY=0;entryDx=0;entryDy=0;" edge="1" parent="1" source="MFjtI2Jwyj0SVyVRnn8q-8" target="MFjtI2Jwyj0SVyVRnn8q-10">
          <mxGeometry width="50" height="50" relative="1" as="geometry">
            <mxPoint x="340" y="520" as="sourcePoint" />
            <mxPoint x="220" y="550" as="targetPoint" />
          </mxGeometry>
        </mxCell>
        <mxCell id="MFjtI2Jwyj0SVyVRnn8q-10" value="read request n" style="rounded=0;whiteSpace=wrap;html=1;" vertex="1" parent="1">
          <mxGeometry x="120" y="560" width="100" height="40" as="geometry" />
        </mxCell>
        <mxCell id="MFjtI2Jwyj0SVyVRnn8q-11" value="&lt;span&gt;...&lt;/span&gt;" style="rounded=0;whiteSpace=wrap;html=1;" vertex="1" parent="1">
          <mxGeometry x="220" y="560" width="100" height="40" as="geometry" />
        </mxCell>
        <mxCell id="MFjtI2Jwyj0SVyVRnn8q-12" value="read request 1" style="rounded=0;whiteSpace=wrap;html=1;" vertex="1" parent="1">
          <mxGeometry x="320" y="560" width="100" height="40" as="geometry" />
        </mxCell>
        <mxCell id="MFjtI2Jwyj0SVyVRnn8q-13" value="read request 0" style="rounded=0;whiteSpace=wrap;html=1;" vertex="1" parent="1">
          <mxGeometry x="630" y="560" width="100" height="40" as="geometry" />
        </mxCell>
        <mxCell id="MFjtI2Jwyj0SVyVRnn8q-14" value="IoQueue" style="text;html=1;strokeColor=none;fillColor=none;align=center;verticalAlign=middle;whiteSpace=wrap;rounded=0;" vertex="1" parent="1">
          <mxGeometry x="60" y="565" width="60" height="30" as="geometry" />
        </mxCell>
        <mxCell id="MFjtI2Jwyj0SVyVRnn8q-18" value="packect n" style="rounded=0;whiteSpace=wrap;html=1;" vertex="1" parent="1">
          <mxGeometry x="280" y="720" width="80" height="40" as="geometry" />
        </mxCell>
        <mxCell id="MFjtI2Jwyj0SVyVRnn8q-19" value="&lt;span&gt;...&lt;/span&gt;" style="rounded=0;whiteSpace=wrap;html=1;" vertex="1" parent="1">
          <mxGeometry x="360" y="720" width="80" height="40" as="geometry" />
        </mxCell>
        <mxCell id="MFjtI2Jwyj0SVyVRnn8q-20" value="&lt;span&gt;packect 3&lt;/span&gt;" style="rounded=0;whiteSpace=wrap;html=1;" vertex="1" parent="1">
          <mxGeometry x="440" y="720" width="80" height="40" as="geometry" />
        </mxCell>
        <mxCell id="MFjtI2Jwyj0SVyVRnn8q-21" value="&lt;span&gt;packect 2&lt;/span&gt;" style="rounded=0;whiteSpace=wrap;html=1;" vertex="1" parent="1">
          <mxGeometry x="520" y="720" width="80" height="40" as="geometry" />
        </mxCell>
        <mxCell id="MFjtI2Jwyj0SVyVRnn8q-22" value="&lt;span&gt;packect 1&lt;/span&gt;" style="rounded=0;whiteSpace=wrap;html=1;" vertex="1" parent="1">
          <mxGeometry x="600" y="720" width="80" height="40" as="geometry" />
        </mxCell>
        <mxCell id="MFjtI2Jwyj0SVyVRnn8q-23" value="&lt;span&gt;packect 0&lt;/span&gt;" style="rounded=0;whiteSpace=wrap;html=1;" vertex="1" parent="1">
          <mxGeometry x="680" y="720" width="80" height="40" as="geometry" />
        </mxCell>
        <mxCell id="MFjtI2Jwyj0SVyVRnn8q-36" value="read handle" style="endArrow=classic;html=1;rounded=0;exitX=0.5;exitY=0;exitDx=0;exitDy=0;entryX=0.75;entryY=1;entryDx=0;entryDy=0;" edge="1" parent="1" source="MFjtI2Jwyj0SVyVRnn8q-13" target="MFjtI2Jwyj0SVyVRnn8q-8">
          <mxGeometry width="50" height="50" relative="1" as="geometry">
            <mxPoint x="430" y="520" as="sourcePoint" />
            <mxPoint x="480" y="470" as="targetPoint" />
          </mxGeometry>
        </mxCell>
        <mxCell id="MFjtI2Jwyj0SVyVRnn8q-40" value="work handler" style="shape=flexArrow;endArrow=classic;html=1;rounded=0;exitX=1.075;exitY=0.18;exitDx=0;exitDy=0;exitPerimeter=0;" edge="1" parent="1" source="MFjtI2Jwyj0SVyVRnn8q-60">
          <mxGeometry x="-1" y="40" width="50" height="50" relative="1" as="geometry">
            <mxPoint x="220" y="739.5" as="sourcePoint" />
            <mxPoint x="270" y="740" as="targetPoint" />
            <mxPoint as="offset" />
          </mxGeometry>
        </mxCell>
        <mxCell id="MFjtI2Jwyj0SVyVRnn8q-41" value="matching" style="shape=flexArrow;endArrow=classic;html=1;rounded=0;exitX=0.5;exitY=0;exitDx=0;exitDy=0;entryX=0.75;entryY=1;entryDx=0;entryDy=0;" edge="1" parent="1" source="MFjtI2Jwyj0SVyVRnn8q-55" target="MFjtI2Jwyj0SVyVRnn8q-60">
          <mxGeometry width="50" height="50" relative="1" as="geometry">
            <mxPoint x="180" y="840" as="sourcePoint" />
            <mxPoint x="160" y="820" as="targetPoint" />
          </mxGeometry>
        </mxCell>
        <mxCell id="MFjtI2Jwyj0SVyVRnn8q-42" value="" style="endArrow=none;dashed=1;html=1;dashPattern=1 3;strokeWidth=2;rounded=0;entryX=1;entryY=1;entryDx=0;entryDy=0;exitX=1;exitY=0;exitDx=0;exitDy=0;" edge="1" parent="1" source="MFjtI2Jwyj0SVyVRnn8q-23" target="MFjtI2Jwyj0SVyVRnn8q-13">
          <mxGeometry width="50" height="50" relative="1" as="geometry">
            <mxPoint x="570" y="700" as="sourcePoint" />
            <mxPoint x="620" y="650" as="targetPoint" />
          </mxGeometry>
        </mxCell>
        <mxCell id="MFjtI2Jwyj0SVyVRnn8q-43" value="" style="endArrow=none;dashed=1;html=1;dashPattern=1 3;strokeWidth=2;rounded=0;entryX=0;entryY=1;entryDx=0;entryDy=0;exitX=0;exitY=0;exitDx=0;exitDy=0;" edge="1" parent="1" source="MFjtI2Jwyj0SVyVRnn8q-22" target="MFjtI2Jwyj0SVyVRnn8q-13">
          <mxGeometry width="50" height="50" relative="1" as="geometry">
            <mxPoint x="470" y="700" as="sourcePoint" />
            <mxPoint x="520" y="650" as="targetPoint" />
          </mxGeometry>
        </mxCell>
        <mxCell id="MFjtI2Jwyj0SVyVRnn8q-44" value="" style="endArrow=none;dashed=1;html=1;dashPattern=1 3;strokeWidth=2;rounded=0;entryX=0;entryY=1;entryDx=0;entryDy=0;exitX=0.75;exitY=0;exitDx=0;exitDy=0;" edge="1" parent="1" source="MFjtI2Jwyj0SVyVRnn8q-19" target="MFjtI2Jwyj0SVyVRnn8q-12">
          <mxGeometry width="50" height="50" relative="1" as="geometry">
            <mxPoint x="310" y="680" as="sourcePoint" />
            <mxPoint x="360" y="630" as="targetPoint" />
          </mxGeometry>
        </mxCell>
        <mxCell id="MFjtI2Jwyj0SVyVRnn8q-46" value="wrap packet" style="endArrow=classic;html=1;rounded=0;entryX=0.5;entryY=1;entryDx=0;entryDy=0;" edge="1" parent="1" target="MFjtI2Jwyj0SVyVRnn8q-13">
          <mxGeometry width="50" height="50" relative="1" as="geometry">
            <mxPoint x="640" y="710" as="sourcePoint" />
            <mxPoint x="540" y="640" as="targetPoint" />
          </mxGeometry>
        </mxCell>
        <mxCell id="MFjtI2Jwyj0SVyVRnn8q-47" value="wrap packet" style="endArrow=classic;html=1;rounded=0;entryX=0.5;entryY=1;entryDx=0;entryDy=0;" edge="1" parent="1" target="MFjtI2Jwyj0SVyVRnn8q-12">
          <mxGeometry width="50" height="50" relative="1" as="geometry">
            <mxPoint x="440" y="700" as="sourcePoint" />
            <mxPoint x="440" y="610" as="targetPoint" />
          </mxGeometry>
        </mxCell>
        <mxCell id="MFjtI2Jwyj0SVyVRnn8q-48" value="read operator" style="curved=1;endArrow=classic;html=1;rounded=0;" edge="1" parent="1">
          <mxGeometry x="-0.0089" y="16" width="50" height="50" relative="1" as="geometry">
            <mxPoint x="280" y="450" as="sourcePoint" />
            <mxPoint x="440" y="450" as="targetPoint" />
            <Array as="points">
              <mxPoint x="290" y="550" />
              <mxPoint x="470" y="540" />
            </Array>
            <mxPoint as="offset" />
          </mxGeometry>
        </mxCell>
        <mxCell id="MFjtI2Jwyj0SVyVRnn8q-49" value="" style="endArrow=none;html=1;rounded=0;strokeWidth=10;" edge="1" parent="1">
          <mxGeometry width="50" height="50" relative="1" as="geometry">
            <mxPoint x="80" y="480" as="sourcePoint" />
            <mxPoint x="800" y="480" as="targetPoint" />
          </mxGeometry>
        </mxCell>
        <mxCell id="MFjtI2Jwyj0SVyVRnn8q-50" value="packetQueue" style="text;html=1;strokeColor=none;fillColor=none;align=center;verticalAlign=middle;whiteSpace=wrap;rounded=0;" vertex="1" parent="1">
          <mxGeometry x="290" y="690" width="60" height="30" as="geometry" />
        </mxCell>
        <mxCell id="MFjtI2Jwyj0SVyVRnn8q-52" value="&lt;span style=&quot;font-size: 11px&quot;&gt;WdfIoQueueRetrieveNextRequest&lt;/span&gt;" style="endArrow=classic;html=1;rounded=0;strokeWidth=1;exitX=1;exitY=0.5;exitDx=0;exitDy=0;entryX=0;entryY=0.5;entryDx=0;entryDy=0;" edge="1" parent="1" source="MFjtI2Jwyj0SVyVRnn8q-12" target="MFjtI2Jwyj0SVyVRnn8q-13">
          <mxGeometry x="-0.0476" y="10" width="50" height="50" relative="1" as="geometry">
            <mxPoint x="460" y="610" as="sourcePoint" />
            <mxPoint x="510" y="570" as="targetPoint" />
            <mxPoint as="offset" />
          </mxGeometry>
        </mxCell>
        <mxCell id="MFjtI2Jwyj0SVyVRnn8q-51" value="WdfRequestForwardToIoQueue" style="text;html=1;strokeColor=none;fillColor=none;align=center;verticalAlign=middle;whiteSpace=wrap;rounded=0;" vertex="1" parent="1">
          <mxGeometry x="40" y="520" width="200" height="30" as="geometry" />
        </mxCell>
        <mxCell id="MFjtI2Jwyj0SVyVRnn8q-53" value="" style="endArrow=none;dashed=1;html=1;dashPattern=1 3;strokeWidth=2;rounded=0;exitX=1;exitY=1;exitDx=0;exitDy=0;entryX=1;entryY=0;entryDx=0;entryDy=0;" edge="1" parent="1" source="MFjtI2Jwyj0SVyVRnn8q-12" target="MFjtI2Jwyj0SVyVRnn8q-21">
          <mxGeometry width="50" height="50" relative="1" as="geometry">
            <mxPoint x="470" y="670" as="sourcePoint" />
            <mxPoint x="520" y="620" as="targetPoint" />
          </mxGeometry>
        </mxCell>
        <mxCell id="MFjtI2Jwyj0SVyVRnn8q-55" value="&lt;span&gt;wfp callouts&lt;br&gt;match?&lt;br&gt;&lt;/span&gt;" style="rhombus;whiteSpace=wrap;html=1;" vertex="1" parent="1">
          <mxGeometry x="130" y="960" width="100" height="80" as="geometry" />
        </mxCell>
        <mxCell id="MFjtI2Jwyj0SVyVRnn8q-56" value="packects" style="shape=flexArrow;endArrow=classic;html=1;rounded=0;strokeWidth=1;" edge="1" parent="1">
          <mxGeometry x="-0.1429" y="30" width="50" height="50" relative="1" as="geometry">
            <mxPoint x="60" y="999.58" as="sourcePoint" />
            <mxPoint x="130" y="999.58" as="targetPoint" />
            <mxPoint as="offset" />
          </mxGeometry>
        </mxCell>
        <mxCell id="MFjtI2Jwyj0SVyVRnn8q-57" value="not matching" style="shape=flexArrow;endArrow=classic;html=1;rounded=0;strokeWidth=1;exitX=1;exitY=0.5;exitDx=0;exitDy=0;entryX=0;entryY=0.5;entryDx=0;entryDy=0;" edge="1" parent="1" source="MFjtI2Jwyj0SVyVRnn8q-55" target="MFjtI2Jwyj0SVyVRnn8q-58">
          <mxGeometry x="-0.1765" y="20" width="50" height="50" relative="1" as="geometry">
            <mxPoint x="270" y="1030" as="sourcePoint" />
            <mxPoint x="400" y="1000" as="targetPoint" />
            <mxPoint as="offset" />
          </mxGeometry>
        </mxCell>
        <mxCell id="MFjtI2Jwyj0SVyVRnn8q-58" value="miniport(网卡)" style="rounded=0;whiteSpace=wrap;html=1;" vertex="1" parent="1">
          <mxGeometry x="460" y="970" width="120" height="60" as="geometry" />
        </mxCell>
        <mxCell id="MFjtI2Jwyj0SVyVRnn8q-59" value="send out" style="shape=flexArrow;endArrow=classic;html=1;rounded=0;strokeWidth=1;exitX=1;exitY=0.5;exitDx=0;exitDy=0;" edge="1" parent="1" source="MFjtI2Jwyj0SVyVRnn8q-58">
          <mxGeometry x="1" y="30" width="50" height="50" relative="1" as="geometry">
            <mxPoint x="710" y="1030" as="sourcePoint" />
            <mxPoint x="700" y="1000" as="targetPoint" />
            <mxPoint x="30" y="30" as="offset" />
          </mxGeometry>
        </mxCell>
        <mxCell id="MFjtI2Jwyj0SVyVRnn8q-60" value="workItem" style="rounded=0;whiteSpace=wrap;html=1;" vertex="1" parent="1">
          <mxGeometry x="120" y="720" width="80" height="100" as="geometry" />
        </mxCell>
        <mxCell id="MFjtI2Jwyj0SVyVRnn8q-86" value="SdpMsgHead[0]" style="rounded=0;whiteSpace=wrap;html=1;" vertex="1" parent="1">
          <mxGeometry x="121" y="80" width="90" height="40" as="geometry" />
        </mxCell>
        <mxCell id="MFjtI2Jwyj0SVyVRnn8q-87" value="数据标头" style="text;html=1;strokeColor=none;fillColor=none;align=center;verticalAlign=middle;whiteSpace=wrap;rounded=0;" vertex="1" parent="1">
          <mxGeometry x="55" y="85" width="60" height="30" as="geometry" />
        </mxCell>
        <mxCell id="MFjtI2Jwyj0SVyVRnn8q-88" value="SdpMsgHead[1]" style="rounded=0;whiteSpace=wrap;html=1;" vertex="1" parent="1">
          <mxGeometry x="211" y="80" width="90" height="40" as="geometry" />
        </mxCell>
        <mxCell id="MFjtI2Jwyj0SVyVRnn8q-89" value="..." style="rounded=0;whiteSpace=wrap;html=1;" vertex="1" parent="1">
          <mxGeometry x="301" y="80" width="90" height="40" as="geometry" />
        </mxCell>
        <mxCell id="MFjtI2Jwyj0SVyVRnn8q-90" value="SdpMsgHead[n]" style="rounded=0;whiteSpace=wrap;html=1;" vertex="1" parent="1">
          <mxGeometry x="391" y="80" width="90" height="40" as="geometry" />
        </mxCell>
        <mxCell id="MFjtI2Jwyj0SVyVRnn8q-91" value="直接IO缓冲区" style="text;html=1;strokeColor=none;fillColor=none;align=center;verticalAlign=middle;whiteSpace=wrap;rounded=0;" vertex="1" parent="1">
          <mxGeometry x="30" y="245" width="80" height="30" as="geometry" />
        </mxCell>
        <mxCell id="MFjtI2Jwyj0SVyVRnn8q-92" value="msgBody[0]" style="rounded=0;whiteSpace=wrap;html=1;" vertex="1" parent="1">
          <mxGeometry x="120" y="240" width="160" height="40" as="geometry" />
        </mxCell>
        <mxCell id="MFjtI2Jwyj0SVyVRnn8q-93" value="msgBody[1]" style="rounded=0;whiteSpace=wrap;html=1;" vertex="1" parent="1">
          <mxGeometry x="280" y="240" width="160" height="40" as="geometry" />
        </mxCell>
        <mxCell id="MFjtI2Jwyj0SVyVRnn8q-94" value="..." style="rounded=0;whiteSpace=wrap;html=1;" vertex="1" parent="1">
          <mxGeometry x="440" y="240" width="160" height="40" as="geometry" />
        </mxCell>
        <mxCell id="MFjtI2Jwyj0SVyVRnn8q-95" value="&lt;span&gt;msgBody[n]&lt;/span&gt;" style="rounded=0;whiteSpace=wrap;html=1;" vertex="1" parent="1">
          <mxGeometry x="600" y="240" width="160" height="40" as="geometry" />
        </mxCell>
        <mxCell id="MFjtI2Jwyj0SVyVRnn8q-96" value="" style="endArrow=none;dashed=1;html=1;rounded=0;strokeWidth=1;entryX=0;entryY=1;entryDx=0;entryDy=0;exitX=1;exitY=0;exitDx=0;exitDy=0;" edge="1" parent="1" source="MFjtI2Jwyj0SVyVRnn8q-92" target="MFjtI2Jwyj0SVyVRnn8q-88">
          <mxGeometry width="50" height="50" relative="1" as="geometry">
            <mxPoint x="171" y="200" as="sourcePoint" />
            <mxPoint x="221" y="150" as="targetPoint" />
          </mxGeometry>
        </mxCell>
        <mxCell id="MFjtI2Jwyj0SVyVRnn8q-97" value="" style="endArrow=none;dashed=1;html=1;rounded=0;strokeWidth=1;entryX=0;entryY=1;entryDx=0;entryDy=0;exitX=0;exitY=0;exitDx=0;exitDy=0;" edge="1" parent="1" source="MFjtI2Jwyj0SVyVRnn8q-92" target="MFjtI2Jwyj0SVyVRnn8q-86">
          <mxGeometry width="50" height="50" relative="1" as="geometry">
            <mxPoint x="51" y="200" as="sourcePoint" />
            <mxPoint x="101" y="150" as="targetPoint" />
          </mxGeometry>
        </mxCell>
        <mxCell id="MFjtI2Jwyj0SVyVRnn8q-98" value="" style="endArrow=none;dashed=1;html=1;rounded=0;strokeWidth=1;exitX=0;exitY=1;exitDx=0;exitDy=0;entryX=0;entryY=0;entryDx=0;entryDy=0;" edge="1" parent="1" source="MFjtI2Jwyj0SVyVRnn8q-89" target="MFjtI2Jwyj0SVyVRnn8q-94">
          <mxGeometry width="50" height="50" relative="1" as="geometry">
            <mxPoint x="431" y="180" as="sourcePoint" />
            <mxPoint x="481" y="130" as="targetPoint" />
          </mxGeometry>
        </mxCell>
        <mxCell id="MFjtI2Jwyj0SVyVRnn8q-99" value="" style="endArrow=none;dashed=1;html=1;rounded=0;strokeWidth=1;exitX=0;exitY=1;exitDx=0;exitDy=0;entryX=0;entryY=0;entryDx=0;entryDy=0;" edge="1" parent="1" source="MFjtI2Jwyj0SVyVRnn8q-90" target="MFjtI2Jwyj0SVyVRnn8q-95">
          <mxGeometry width="50" height="50" relative="1" as="geometry">
            <mxPoint x="491" y="180" as="sourcePoint" />
            <mxPoint x="541" y="130" as="targetPoint" />
          </mxGeometry>
        </mxCell>
        <mxCell id="MFjtI2Jwyj0SVyVRnn8q-100" value="" style="endArrow=none;dashed=1;html=1;rounded=0;strokeWidth=1;exitX=1;exitY=1;exitDx=0;exitDy=0;entryX=1;entryY=0;entryDx=0;entryDy=0;" edge="1" parent="1" source="MFjtI2Jwyj0SVyVRnn8q-90" target="MFjtI2Jwyj0SVyVRnn8q-95">
          <mxGeometry width="50" height="50" relative="1" as="geometry">
            <mxPoint x="631" y="140" as="sourcePoint" />
            <mxPoint x="681" y="90" as="targetPoint" />
          </mxGeometry>
        </mxCell>
        <mxCell id="MFjtI2Jwyj0SVyVRnn8q-101" value="logger" style="shape=flexArrow;endArrow=classic;html=1;rounded=0;strokeWidth=1;entryX=0;entryY=1;entryDx=0;entryDy=0;" edge="1" parent="1" target="MFjtI2Jwyj0SVyVRnn8q-60">
          <mxGeometry x="-1" y="-20" width="50" height="50" relative="1" as="geometry">
            <mxPoint x="50" y="820" as="sourcePoint" />
            <mxPoint x="80" y="810" as="targetPoint" />
            <mxPoint x="-20" y="-20" as="offset" />
          </mxGeometry>
        </mxCell>
        <mxCell id="MFjtI2Jwyj0SVyVRnn8q-102" value="other data" style="shape=flexArrow;endArrow=classic;html=1;rounded=0;strokeWidth=1;entryX=0.25;entryY=1;entryDx=0;entryDy=0;" edge="1" parent="1" target="MFjtI2Jwyj0SVyVRnn8q-60">
          <mxGeometry width="50" height="50" relative="1" as="geometry">
            <mxPoint x="80" y="920" as="sourcePoint" />
            <mxPoint x="130" y="870" as="targetPoint" />
          </mxGeometry>
        </mxCell>
      </root>
    </mxGraphModel>
  </diagram>
</mxfile>
